<svg width="679" height="679" viewBox="0 0 679 679" fill="none" xmlns="http://www.w3.org/2000/svg">
<path d="M339.5 657.5C515.127 657.5 657.5 515.127 657.5 339.5C657.5 163.873 515.127 21.5 339.5 21.5C163.873 21.5 21.5 163.873 21.5 339.5C21.5 515.127 163.873 657.5 339.5 657.5Z" fill="white" stroke="black" stroke-width="43" stroke-miterlimit="10"/>
<path d="M339.5 601C483.922 601 601 483.922 601 339.5C601 195.078 483.922 78 339.5 78C195.078 78 78 195.078 78 339.5C78 483.922 195.078 601 339.5 601Z" fill="black"/>
<path d="M193.5 171.5C198.471 171.5 202.5 167.471 202.5 162.5C202.5 157.529 198.471 153.5 193.5 153.5C188.529 153.5 184.5 157.529 184.5 162.5C184.5 167.471 188.529 171.5 193.5 171.5Z" fill="white"/>
<path d="M485.5 171.5C490.471 171.5 494.5 167.471 494.5 162.5C494.5 157.529 490.471 153.5 485.5 153.5C480.529 153.5 476.5 157.529 476.5 162.5C476.5 167.471 480.529 171.5 485.5 171.5Z" fill="white"/>
<path d="M186.5 525.5C191.471 525.5 195.5 521.471 195.5 516.5C195.5 511.529 191.471 507.5 186.5 507.5C181.529 507.5 177.5 511.529 177.5 516.5C177.5 521.471 181.529 525.5 186.5 525.5Z" fill="white"/>
<path d="M492.5 525.5C497.471 525.5 501.5 521.471 501.5 516.5C501.5 511.529 497.471 507.5 492.5 507.5C487.529 507.5 483.5 511.529 483.5 516.5C483.5 521.471 487.529 525.5 492.5 525.5Z" fill="white"/>
<path d="M227.04 182.17C229.603 182.17 231.68 180.093 231.68 177.53C231.68 174.967 229.603 172.89 227.04 172.89C224.477 172.89 222.4 174.967 222.4 177.53C222.4 180.093 224.477 182.17 227.04 182.17Z" fill="white"/>
<path d="M452.45 182.17C455.013 182.17 457.09 180.093 457.09 177.53C457.09 174.967 455.013 172.89 452.45 172.89C449.887 172.89 447.81 174.967 447.81 177.53C447.81 180.093 449.887 182.17 452.45 182.17Z" fill="white"/>
<path d="M225.16 509.93C227.01 509.93 228.51 508.43 228.51 506.58C228.51 504.73 227.01 503.23 225.16 503.23C223.31 503.23 221.81 504.73 221.81 506.58C221.81 508.43 223.31 509.93 225.16 509.93Z" fill="white"/>
<path d="M453.15 509.93C455 509.93 456.5 508.43 456.5 506.58C456.5 504.73 455 503.23 453.15 503.23C451.3 503.23 449.8 504.73 449.8 506.58C449.8 508.43 451.3 509.93 453.15 509.93Z" fill="white"/>
<path d="M418.29 385.48V448.63L476.74 414.27V351.24L418.29 385.48Z" fill="#B9B7B8"/>
<path d="M417.57 316.59L359.24 350.89L418.29 385.48L476.74 351.24L417.57 316.59Z" fill="white"/>
<path d="M359.24 350.89V413.98L418.29 448.57V385.48L359.24 350.89Z" fill="#F7F7F7"/>
<path d="M261.32 385.48V448.63L319.76 414.27V351.24L261.32 385.48Z" fill="#B9B7B8"/>
<path d="M260.59 316.59L202.26 350.89L261.32 385.48L319.76 351.24L260.59 316.59Z" fill="white"/>
<path d="M202.26 350.89V413.98L261.32 448.57V385.48L202.26 350.89Z" fill="#F7F7F7"/>
<path d="M340.4 431.85V495.01L398.84 460.64V397.62L340.4 431.85Z" fill="#B9B7B8"/>
<path d="M339.68 362.97L281.35 397.26L340.4 431.85L398.84 397.62L339.68 362.97Z" fill="white"/>
<path d="M281.35 397.26V460.35L340.4 494.94V431.85L281.35 397.26Z" fill="#F7F7F7"/>
<path d="M339.21 252.88V316.03L397.65 281.67V218.65L339.21 252.88Z" fill="#B9B7B8"/>
<path d="M338.49 183.99L280.16 218.29L339.21 252.88L397.65 218.65L338.49 183.99Z" fill="white"/>
<path d="M280.16 218.29V281.38L339.21 315.97V252.88L280.16 218.29Z" fill="#F7F7F7"/>
<path d="M418.29 299.26V362.41L476.74 328.05V265.03L418.29 299.26Z" fill="#B9B7B8"/>
<path d="M417.57 230.37L359.24 264.67L418.29 299.26L476.74 265.03L417.57 230.37Z" fill="white"/>
<path d="M359.24 264.67V327.76L418.29 362.35V299.26L359.24 264.67Z" fill="#F7F7F7"/>
<path d="M261.32 299.26V362.41L319.76 328.05V265.03L261.32 299.26Z" fill="#B9B7B8"/>
<path d="M260.59 230.37L202.26 264.67L261.32 299.26L319.76 265.03L260.59 230.37Z" fill="white"/>
<path d="M202.26 264.67V327.76L261.32 362.35V299.26L202.26 264.67Z" fill="#F7F7F7"/>
<path d="M340.4 345.64V408.79L398.84 374.43V311.41L340.4 345.64Z" fill="#B9B7B8"/>
<path d="M339.68 276.75L281.35 311.05L340.4 345.64L398.84 311.41L339.68 276.75Z" fill="white"/>
<path d="M281.35 311.05V374.14L340.4 408.73V345.64L281.35 311.05Z" fill="#F7F7F7"/>
</svg>
